<?xml version="1.0" encoding="utf-8"?>
<!-- Generator: Adobe Illustrator 16.2.0, SVG Export Plug-In . SVG Version: 6.00 Build 0)  -->
<!DOCTYPE svg PUBLIC "-//W3C//DTD SVG 1.1//EN" "http://www.w3.org/Graphics/SVG/1.1/DTD/svg11.dtd">
<svg version="1.1" id="Layer_1" xmlns="http://www.w3.org/2000/svg" xmlns:xlink="http://www.w3.org/1999/xlink" x="0px" y="0px"
	 width="90.591px" height="10.479px" viewBox="0 0 90.591 10.479" enable-background="new 0 0 90.591 10.479" xml:space="preserve">
<g enable-background="new    ">
	<path fill="#FFFFFF" d="M16.444,9.375h-1.859V2.346l-4.87,7.028H7.197L2.328,2.346v7.028H0.481V0.979h3.035l4.977,7.244
		l4.989-7.244h2.962V9.375z"/>
	<path fill="#FFFFFF" d="M29.649,0.979c2.351,0,3.094,0.336,3.694,0.936c0.456,0.456,0.636,1.14,0.636,1.847
		c0,0.708-0.18,1.355-0.684,1.859c-0.456,0.456-1.151,0.84-2.758,0.947l4.509,2.771v0.036h-2.807l-4.438-2.782h-3.322v2.782H22.62
		V0.979H29.649z M24.479,5.129h5.193c1.307,0,1.871-0.18,2.159-0.468c0.192-0.191,0.3-0.443,0.3-0.851
		c0-0.385-0.108-0.672-0.324-0.888c-0.288-0.288-0.779-0.432-2.123-0.432h-5.206V5.129z"/>
	<path fill="#FFFFFF" d="M55.936,9.375h-1.858V2.346l-4.87,7.028h-2.519L41.82,2.346v7.028h-1.847V0.979h3.035l4.977,7.244
		l4.99-7.244h2.962V9.375z"/>
	<path fill="#FFFFFF" d="M69.141,0.979c2.351,0,3.095,0.336,3.694,0.936c0.455,0.456,0.635,1.14,0.635,1.847
		c0,0.708-0.18,1.355-0.684,1.859c-0.455,0.456-1.15,0.84-2.758,0.947l4.51,2.771v0.036h-2.807l-4.438-2.782h-3.322v2.782h-1.859
		V0.979H69.141z M63.972,5.129h5.193c1.307,0,1.871-0.18,2.158-0.468c0.191-0.191,0.3-0.443,0.3-0.851
		c0-0.385-0.108-0.672-0.323-0.888c-0.288-0.288-0.779-0.432-2.123-0.432h-5.205V5.129z"/>
	<path fill="#FFFFFF" d="M88.183,7.588C88.351,7.42,88.411,7.216,88.411,7c0-0.252-0.061-0.443-0.203-0.587
		c-0.265-0.265-0.756-0.372-3.719-0.528c-3.346-0.168-4.365-0.443-4.941-1.02c-0.336-0.336-0.479-0.804-0.479-1.403
		c0-0.611,0.132-1.187,0.588-1.643c0.587-0.588,1.739-0.996,4.688-0.996c2.34,0,4.103,0.336,5.218,0.78v1.571
		c-1.271-0.54-3.382-0.936-5.218-0.936c-2.29,0-2.949,0.216-3.226,0.491c-0.144,0.145-0.204,0.336-0.204,0.563
		c0,0.216,0.061,0.396,0.18,0.517c0.252,0.251,0.816,0.396,3.551,0.527c3.537,0.18,4.521,0.443,5.098,1.02
		c0.335,0.336,0.516,0.852,0.516,1.451c0,0.623-0.133,1.199-0.588,1.655c-0.6,0.6-1.787,1.067-4.93,1.067
		c-2.326,0-4.605-0.372-5.9-0.936V7.024c1.247,0.6,3.897,1.091,5.9,1.091C87.092,8.115,87.848,7.924,88.183,7.588z"/>
</g>
</svg>
