<?xml version="1.0" standalone="no"?>
<!DOCTYPE svg PUBLIC "-//W3C//DTD SVG 20010904//EN"
 "http://www.w3.org/TR/2001/REC-SVG-20010904/DTD/svg10.dtd">
<svg version="1.0" xmlns="http://www.w3.org/2000/svg"
 width="16.000000pt" height="16.000000pt" viewBox="0 0 16.000000 16.000000"
 preserveAspectRatio="xMidYMid meet">
<metadata>
Created by potrace 1.11, written by Peter Selinger 2001-2013
</metadata>
<g transform="translate(0.000000,16.000000) scale(0.001170,-0.001170)"
fill="#000000" stroke="none">
<path d="M7040 10469 c-930 -96 -1768 -582 -2313 -1343 -152 -212 -308 -503
-393 -733 -23 -64 -41 -100 -48 -96 -6 4 -42 27 -79 51 -456 294 -1055 305
-1517 30 -474 -283 -738 -767 -717 -1313 4 -82 13 -181 22 -220 8 -38 15 -73
15 -77 0 -5 -22 -8 -49 -8 -77 0 -265 -27 -376 -54 -382 -94 -712 -282 -985
-563 -162 -165 -258 -295 -358 -483 -156 -294 -234 -614 -233 -960 0 -237 11
-325 45 -359 l26 -26 4570 -3 c4961 -2 4617 -6 4655 51 16 25 84 260 110 377
108 503 -172 897 -669 941 -84 8 -4523 70 -4923 69 -66 0 -76 3 -105 29 -28
25 -33 36 -32 72 1 36 8 48 37 76 20 18 46 35 59 37 13 3 1139 19 2503 36
1420 17 2518 35 2570 41 448 51 932 363 1209 779 94 141 122 203 298 658 182
475 173 422 114 632 -150 543 -431 1025 -831 1425 -480 480 -1068 784 -1751
905 -211 37 -634 51 -854 29z"/>
<path d="M10821 7792 c-19 -4 -42 -18 -52 -32 -21 -30 -225 -743 -240 -843
-17 -106 -6 -296 21 -382 79 -250 265 -420 525 -478 85 -19 200 -29 765 -62
239 -14 450 -28 469 -31 51 -8 81 -44 81 -97 0 -56 -38 -101 -96 -115 -21 -5
-255 -22 -519 -36 -663 -37 -717 -42 -847 -75 -450 -113 -868 -436 -1103 -851
-65 -115 -177 -392 -173 -429 2 -15 13 -31 28 -38 20 -10 408 -12 1915 -10
2145 2 1931 -8 1959 89 22 77 63 288 78 398 16 125 16 509 -1 630 -68 499
-236 911 -535 1310 -100 134 -376 408 -517 513 -388 289 -819 464 -1284 522
-130 16 -425 27 -474 17z"/>
</g>
</svg>
