<?xml version="1.0" encoding="utf-8"?>
<!-- Generator: Adobe Illustrator 16.2.0, SVG Export Plug-In . SVG Version: 6.00 Build 0)  -->
<!DOCTYPE svg PUBLIC "-//W3C//DTD SVG 1.1//EN" "http://www.w3.org/Graphics/SVG/1.1/DTD/svg11.dtd">
<svg version="1.1" id="Layer_1" xmlns="http://www.w3.org/2000/svg" xmlns:xlink="http://www.w3.org/1999/xlink" x="0px" y="0px"
	 width="384px" height="392px" viewBox="0 0 384 392" enable-background="new 0 0 384 392" xml:space="preserve">
<g>
	<g>
		<g enable-background="new    ">
			<g>
				<polygon fill="#E4E4E4" points="1023.769,175.435 1010.832,20.885 1145.873,38.258 1157.883,194.957 				"/>
			</g>
			<g>
				<polygon fill="#E5E5E5" points="930.423,225.488 916.434,68.162 1010.832,20.885 1023.769,175.435 				"/>
			</g>
			<g>
				<polygon fill="#FBFBFB" points="1065.916,246.176 1052.869,86.623 1145.873,38.258 1157.883,194.957 				"/>
			</g>
			<g>
				<path fill="#E1E1E1" d="M1147.238,38.08l-94.108,48.95L915.053,68.342l95.536-47.837L1147.238,38.08z M916.434,68.162
					l136.436,18.461l93.004-48.365l-135.041-17.373L916.434,68.162"/>
			</g>
			<g>
				<polygon fill="#FAFAFA" points="1010.831,20.885 1145.873,38.258 1052.869,86.623 916.434,68.162 				"/>
			</g>
			<g>
				<polygon fill="#FBFBFA" points="930.423,225.488 916.434,68.162 1052.869,86.623 1065.916,246.176 				"/>
			</g>
			<g>
				<polygon fill="#E5E5E5" points="1066.178,246.614 1053.13,87.03 1147.238,38.08 1159.236,194.775 				"/>
			</g>
			<g>
				<polygon fill="#E4E4E4" points="929.055,225.672 915.053,68.342 1053.13,87.03 1066.178,246.614 				"/>
			</g>
		</g>
	</g>
</g>
<path fill="#FFFFFF" d="M192.055,15.722c-99.411,0-180,80.588-180,180c0,99.41,80.589,180,180,180s180-80.59,180-180
	C372.055,96.311,291.466,15.722,192.055,15.722z M226.192,215.278h-27.035v-2.742c0.796-0.07,1.775-0.188,2.936-0.352
	s1.951-0.34,2.373-0.527c0.867-0.352,1.488-0.832,1.863-1.441c0.375-0.609,0.562-1.383,0.562-2.32V170.63l-17.156,43.84h-4.43
	c-0.211-0.773-0.733-2.309-1.564-4.605c-0.832-2.297-1.506-4.137-2.021-5.52l-12.621-34.277v30.34c0,2.906,0.193,5.115,0.58,6.627
	s1.014,2.619,1.881,3.322c0.585,0.492,1.635,0.961,3.146,1.406s2.572,0.703,3.182,0.773v2.742h-21.445v-2.742
	c0.585-0.07,1.541-0.229,2.865-0.475c1.324-0.246,2.408-0.674,3.252-1.283c0.937-0.656,1.57-1.764,1.898-3.322
	c0.328-1.559,0.492-3.779,0.492-6.662v-24.715c0-1.5-0.188-2.748-0.562-3.744c-0.375-0.996-0.938-1.787-1.688-2.373
	c-0.938-0.727-1.898-1.195-2.883-1.406s-1.981-0.352-2.988-0.422v-2.742h22.987l12.297,32.869l10.365-26.676
	c0.351-0.985,0.69-2.158,1.018-3.519c0.328-1.36,0.504-2.252,0.527-2.675h22.099v2.742c-0.75,0.047-1.535,0.141-2.355,0.281
	c-0.821,0.141-1.605,0.328-2.355,0.562c-0.914,0.305-1.518,0.785-1.811,1.441c-0.293,0.656-0.439,1.383-0.439,2.18v35.332
	c0,0.844,0.146,1.553,0.439,2.127c0.293,0.574,0.896,1.072,1.811,1.494c0.469,0.211,1.236,0.41,2.303,0.598
	c1.066,0.188,1.893,0.316,2.479,0.387V215.278z"/>
</svg>
